<?xml version="1.0" encoding="utf-8"?>
<!-- Generator: Adobe Illustrator 23.1.0, SVG Export Plug-In . SVG Version: 6.00 Build 0)  -->
<svg version="1.1" id="Layer_1" xmlns="http://www.w3.org/2000/svg" xmlns:xlink="http://www.w3.org/1999/xlink" x="0px" y="0px"
	 viewBox="0 0 16 16" style="enable-background:new 0 0 16 16;" xml:space="preserve">
<style type="text/css">
	.st0{fill-rule:evenodd;clip-rule:evenodd;fill:#E4A024;}
</style>
<path class="st0" d="M8.04,0.84C4.15,0.84,1,3.99,1,7.87c0,3.11,2.02,5.75,4.81,6.68c0.35,0.06,0.48-0.15,0.48-0.34
	c0-0.17-0.01-0.61-0.01-1.2c-1.96,0.43-2.37-0.94-2.37-0.94c-0.32-0.81-0.78-1.03-0.78-1.03c-0.64-0.44,0.05-0.43,0.05-0.43
	c0.71,0.05,1.08,0.73,1.08,0.73c0.63,1.08,1.65,0.76,2.05,0.58c0.06-0.45,0.25-0.76,0.45-0.94c-1.56-0.18-3.21-0.78-3.21-3.48
	c0-0.77,0.27-1.4,0.72-1.89C4.2,5.44,3.96,4.72,4.34,3.75c0,0,0.59-0.19,1.94,0.72c0.56-0.16,1.16-0.23,1.76-0.24
	c0.6,0,1.2,0.08,1.76,0.24c1.34-0.91,1.93-0.72,1.93-0.72c0.38,0.97,0.14,1.68,0.07,1.86c0.45,0.49,0.72,1.12,0.72,1.89
	c0,2.7-1.65,3.3-3.21,3.47c0.25,0.22,0.48,0.65,0.48,1.3c0,0.94-0.01,1.7-0.01,1.93c0,0.19,0.13,0.41,0.48,0.34
	c2.79-0.93,4.81-3.57,4.81-6.68C15.07,3.99,11.92,0.84,8.04,0.84z"/>
</svg>
